<?xml version="1.0" encoding="UTF-8"?> <svg xmlns="http://www.w3.org/2000/svg" width="86" height="22" viewBox="0 0 86 22" fill="none"><path d="M9.37109 21.35C7.30443 21.35 5.57943 20.9417 4.19609 20.125C2.82943 19.2917 1.80443 18.1167 1.12109 16.6C0.454427 15.0833 0.121094 13.3 0.121094 11.25C0.121094 9.18333 0.454427 7.4 1.12109 5.9C1.80443 4.38333 2.82943 3.21667 4.19609 2.4C5.57943 1.56667 7.30443 1.15 9.37109 1.15C11.4544 1.15 13.1794 1.56667 14.5461 2.4C15.9128 3.21667 16.9294 4.38333 17.5961 5.9C18.2794 7.4 18.6211 9.18333 18.6211 11.25C18.6211 13.3 18.2794 15.0833 17.5961 16.6C16.9294 18.1167 15.9128 19.2917 14.5461 20.125C13.1794 20.9417 11.4544 21.35 9.37109 21.35ZM9.37109 18.2C11.0544 18.2 12.2878 17.6 13.0711 16.4C13.8711 15.1833 14.2711 13.4667 14.2711 11.25C14.2711 9.01667 13.8711 7.3 13.0711 6.1C12.2878 4.9 11.0544 4.3 9.37109 4.3C7.68776 4.3 6.44609 4.9 5.64609 6.1C4.86276 7.3 4.47109 9.01667 4.47109 11.25C4.47109 13.4667 4.86276 15.1833 5.64609 16.4C6.44609 17.6 7.68776 18.2 9.37109 18.2ZM25.9309 21.375C24.2642 21.375 22.9309 21.1167 21.9309 20.6C20.9475 20.0667 20.2225 19.4 19.7559 18.6C19.3059 17.8 19.0475 17 18.9809 16.2H22.8309C22.9142 16.6333 23.0892 17.0333 23.3559 17.4C23.6392 17.75 24.0059 18.025 24.4559 18.225C24.9225 18.425 25.4809 18.525 26.1309 18.525C26.9309 18.525 27.5059 18.3917 27.8559 18.125C28.2059 17.8417 28.3809 17.4833 28.3809 17.05C28.3809 16.65 28.2142 16.3167 27.8809 16.05C27.5642 15.7667 27.0392 15.5083 26.3059 15.275L24.5059 14.675C23.6392 14.375 22.8392 14.05 22.1059 13.7C21.3725 13.3333 20.7809 12.8667 20.3309 12.3C19.8975 11.7333 19.6809 11 19.6809 10.1C19.6809 8.76667 20.1892 7.69167 21.2059 6.875C22.2225 6.04167 23.6642 5.625 25.5309 5.625C26.8809 5.625 27.9809 5.83333 28.8309 6.25C29.6975 6.66667 30.3475 7.225 30.7809 7.925C31.2142 8.60833 31.4642 9.36667 31.5309 10.2H27.8309C27.7475 9.6 27.4975 9.14167 27.0809 8.825C26.6642 8.49167 26.0975 8.325 25.3809 8.325C24.7309 8.325 24.2392 8.45 23.9059 8.7C23.5892 8.95 23.4309 9.29167 23.4309 9.725C23.4309 10.1583 23.6059 10.5167 23.9559 10.8C24.3059 11.0833 24.8392 11.3417 25.5559 11.575L27.3559 12.15C28.2225 12.4167 29.0142 12.7333 29.7309 13.1C30.4642 13.45 31.0475 13.9167 31.4809 14.5C31.9142 15.0667 32.1309 15.8083 32.1309 16.725C32.1309 18.125 31.5975 19.25 30.5309 20.1C29.4809 20.95 27.9475 21.375 25.9309 21.375ZM33.6691 21V0.999999H37.7191V7.8H38.3191C38.6525 7.16667 39.1108 6.65 39.6941 6.25C40.2941 5.83333 41.1191 5.625 42.1691 5.625C43.8358 5.625 45.0858 6.15 45.9191 7.2C46.7525 8.25 47.1691 9.675 47.1691 11.475V21H43.1191V12.15C43.1191 11.1167 42.9358 10.325 42.5691 9.775C42.2025 9.20833 41.6025 8.925 40.7691 8.925C39.8025 8.925 39.0525 9.30833 38.5191 10.075C37.9858 10.825 37.7191 11.7667 37.7191 12.9V21H33.6691ZM49.7613 21V6H53.8113V21H49.7613ZM51.7863 4.275C51.0697 4.275 50.528 4.09167 50.1613 3.725C49.7947 3.34167 49.6113 2.85 49.6113 2.25C49.6113 1.65 49.7947 1.16667 50.1613 0.8C50.528 0.416667 51.0697 0.225 51.7863 0.225C52.503 0.225 53.0447 0.416667 53.4113 0.8C53.778 1.16667 53.9613 1.65 53.9613 2.25C53.9613 2.85 53.778 3.34167 53.4113 3.725C53.0447 4.09167 52.503 4.275 51.7863 4.275ZM56.625 21V6H60.375V8.25H60.975C61.275 7.5 61.7333 6.875 62.35 6.375C62.9833 5.875 63.9083 5.625 65.125 5.625C66.7917 5.625 68.0417 6.15 68.875 7.2C69.7083 8.25 70.125 9.675 70.125 11.475V21H66.075V12.15C66.075 11.1167 65.8917 10.325 65.525 9.775C65.1583 9.20833 64.5583 8.925 63.725 8.925C62.7583 8.925 62.0083 9.30833 61.475 10.075C60.9417 10.825 60.675 11.7667 60.675 12.9V21H56.625ZM78.9922 21.375C76.6255 21.375 74.8172 20.6667 73.5672 19.25C72.3339 17.8333 71.7172 15.9083 71.7172 13.475C71.7172 11.8417 71.9922 10.4417 72.5422 9.275C73.1089 8.10833 73.9255 7.20833 74.9922 6.575C76.0755 5.94167 77.3922 5.625 78.9422 5.625C81.1755 5.625 82.8839 6.3 84.0672 7.65C85.2672 9 85.8672 10.9833 85.8672 13.6V14.45H75.6672C75.7505 15.7167 76.0755 16.7167 76.6422 17.45C77.2255 18.1667 78.0089 18.525 78.9922 18.525C79.7755 18.525 80.4005 18.2917 80.8672 17.825C81.3505 17.3583 81.6672 16.8167 81.8172 16.2H85.6672C85.5172 17.1167 85.1839 17.9667 84.6672 18.75C84.1505 19.5333 83.4255 20.1667 82.4922 20.65C81.5589 21.1333 80.3922 21.375 78.9922 21.375ZM75.6672 11.9H81.9172C81.8505 10.7667 81.5672 9.89167 81.0672 9.275C80.5672 8.64167 79.8505 8.325 78.9172 8.325C78.0005 8.325 77.2589 8.625 76.6922 9.225C76.1422 9.80833 75.8005 10.7 75.6672 11.9Z" fill="#202020"></path></svg> 